<?xml version="1.0" encoding="utf-8" standalone="no"?>
<!DOCTYPE svg PUBLIC "-//W3C//DTD SVG 1.1//EN"
  "http://www.w3.org/Graphics/SVG/1.1/DTD/svg11.dtd">
<svg xmlns:xlink="http://www.w3.org/1999/xlink" width="409.798125pt" height="310.86825pt" viewBox="0 0 409.798125 310.86825" xmlns="http://www.w3.org/2000/svg" version="1.1">
 <metadata>
  <rdf:RDF xmlns:dc="http://purl.org/dc/elements/1.1/" xmlns:cc="http://creativecommons.org/ns#" xmlns:rdf="http://www.w3.org/1999/02/22-rdf-syntax-ns#">
   <cc:Work>
    <dc:type rdf:resource="http://purl.org/dc/dcmitype/StillImage"/>
    <dc:date>2025-11-03T06:09:55.481325</dc:date>
    <dc:format>image/svg+xml</dc:format>
    <dc:creator>
     <cc:Agent>
      <dc:title>Matplotlib v3.10.6, https://matplotlib.org/</dc:title>
     </cc:Agent>
    </dc:creator>
   </cc:Work>
  </rdf:RDF>
 </metadata>
 <defs>
  <style type="text/css">*{stroke-linejoin: round; stroke-linecap: butt}</style>
 </defs>
 <g id="figure_1">
  <g id="patch_1">
   <path d="M 0 310.86825 
L 409.798125 310.86825 
L 409.798125 0 
L 0 0 
z
" style="fill: #ffffff"/>
  </g>
  <g id="axes_1">
   <g id="patch_2">
    <path d="M 45.478125 273.312 
L 402.598125 273.312 
L 402.598125 7.2 
L 45.478125 7.2 
z
" style="fill: #ffffff"/>
   </g>
   <g id="matplotlib.axis_1">
    <g id="xtick_1">
     <g id="line2d_1">
      <path d="M 61.710852 273.312 
L 61.710852 7.2 
" clip-path="url(#p110dbda4d8)" style="fill: none; stroke: #b0b0b0; stroke-width: 0.8; stroke-linecap: square"/>
     </g>
     <g id="line2d_2">
      <defs>
       <path id="m383a1d963c" d="M 0 0 
L 0 3.5 
" style="stroke: #000000; stroke-width: 0.8"/>
      </defs>
      <g>
       <use xlink:href="#m383a1d963c" x="61.710852" y="273.312" style="stroke: #000000; stroke-width: 0.8"/>
      </g>
     </g>
     <g id="text_1">
      <!-- 0.0 -->
      <g transform="translate(53.759289 287.910437) scale(0.1 -0.1)">
       <defs>
        <path id="DejaVuSans-30" d="M 2034 4250 
Q 1547 4250 1301 3770 
Q 1056 3291 1056 2328 
Q 1056 1369 1301 889 
Q 1547 409 2034 409 
Q 2525 409 2770 889 
Q 3016 1369 3016 2328 
Q 3016 3291 2770 3770 
Q 2525 4250 2034 4250 
z
M 2034 4750 
Q 2819 4750 3233 4129 
Q 3647 3509 3647 2328 
Q 3647 1150 3233 529 
Q 2819 -91 2034 -91 
Q 1250 -91 836 529 
Q 422 1150 422 2328 
Q 422 3509 836 4129 
Q 1250 4750 2034 4750 
z
" transform="scale(0.015625)"/>
        <path id="DejaVuSans-2e" d="M 684 794 
L 1344 794 
L 1344 0 
L 684 0 
L 684 794 
z
" transform="scale(0.015625)"/>
       </defs>
       <use xlink:href="#DejaVuSans-30"/>
       <use xlink:href="#DejaVuSans-2e" transform="translate(63.623047 0)"/>
       <use xlink:href="#DejaVuSans-30" transform="translate(95.410156 0)"/>
      </g>
     </g>
    </g>
    <g id="xtick_2">
     <g id="line2d_3">
      <path d="M 126.641761 273.312 
L 126.641761 7.2 
" clip-path="url(#p110dbda4d8)" style="fill: none; stroke: #b0b0b0; stroke-width: 0.8; stroke-linecap: square"/>
     </g>
     <g id="line2d_4">
      <g>
       <use xlink:href="#m383a1d963c" x="126.641761" y="273.312" style="stroke: #000000; stroke-width: 0.8"/>
      </g>
     </g>
     <g id="text_2">
      <!-- 0.2 -->
      <g transform="translate(118.690198 287.910437) scale(0.1 -0.1)">
       <defs>
        <path id="DejaVuSans-32" d="M 1228 531 
L 3431 531 
L 3431 0 
L 469 0 
L 469 531 
Q 828 903 1448 1529 
Q 2069 2156 2228 2338 
Q 2531 2678 2651 2914 
Q 2772 3150 2772 3378 
Q 2772 3750 2511 3984 
Q 2250 4219 1831 4219 
Q 1534 4219 1204 4116 
Q 875 4013 500 3803 
L 500 4441 
Q 881 4594 1212 4672 
Q 1544 4750 1819 4750 
Q 2544 4750 2975 4387 
Q 3406 4025 3406 3419 
Q 3406 3131 3298 2873 
Q 3191 2616 2906 2266 
Q 2828 2175 2409 1742 
Q 1991 1309 1228 531 
z
" transform="scale(0.015625)"/>
       </defs>
       <use xlink:href="#DejaVuSans-30"/>
       <use xlink:href="#DejaVuSans-2e" transform="translate(63.623047 0)"/>
       <use xlink:href="#DejaVuSans-32" transform="translate(95.410156 0)"/>
      </g>
     </g>
    </g>
    <g id="xtick_3">
     <g id="line2d_5">
      <path d="M 191.57267 273.312 
L 191.57267 7.2 
" clip-path="url(#p110dbda4d8)" style="fill: none; stroke: #b0b0b0; stroke-width: 0.8; stroke-linecap: square"/>
     </g>
     <g id="line2d_6">
      <g>
       <use xlink:href="#m383a1d963c" x="191.57267" y="273.312" style="stroke: #000000; stroke-width: 0.8"/>
      </g>
     </g>
     <g id="text_3">
      <!-- 0.4 -->
      <g transform="translate(183.621108 287.910437) scale(0.1 -0.1)">
       <defs>
        <path id="DejaVuSans-34" d="M 2419 4116 
L 825 1625 
L 2419 1625 
L 2419 4116 
z
M 2253 4666 
L 3047 4666 
L 3047 1625 
L 3713 1625 
L 3713 1100 
L 3047 1100 
L 3047 0 
L 2419 0 
L 2419 1100 
L 313 1100 
L 313 1709 
L 2253 4666 
z
" transform="scale(0.015625)"/>
       </defs>
       <use xlink:href="#DejaVuSans-30"/>
       <use xlink:href="#DejaVuSans-2e" transform="translate(63.623047 0)"/>
       <use xlink:href="#DejaVuSans-34" transform="translate(95.410156 0)"/>
      </g>
     </g>
    </g>
    <g id="xtick_4">
     <g id="line2d_7">
      <path d="M 256.503579 273.312 
L 256.503579 7.2 
" clip-path="url(#p110dbda4d8)" style="fill: none; stroke: #b0b0b0; stroke-width: 0.8; stroke-linecap: square"/>
     </g>
     <g id="line2d_8">
      <g>
       <use xlink:href="#m383a1d963c" x="256.503579" y="273.312" style="stroke: #000000; stroke-width: 0.8"/>
      </g>
     </g>
     <g id="text_4">
      <!-- 0.6 -->
      <g transform="translate(248.552017 287.910437) scale(0.1 -0.1)">
       <defs>
        <path id="DejaVuSans-36" d="M 2113 2584 
Q 1688 2584 1439 2293 
Q 1191 2003 1191 1497 
Q 1191 994 1439 701 
Q 1688 409 2113 409 
Q 2538 409 2786 701 
Q 3034 994 3034 1497 
Q 3034 2003 2786 2293 
Q 2538 2584 2113 2584 
z
M 3366 4563 
L 3366 3988 
Q 3128 4100 2886 4159 
Q 2644 4219 2406 4219 
Q 1781 4219 1451 3797 
Q 1122 3375 1075 2522 
Q 1259 2794 1537 2939 
Q 1816 3084 2150 3084 
Q 2853 3084 3261 2657 
Q 3669 2231 3669 1497 
Q 3669 778 3244 343 
Q 2819 -91 2113 -91 
Q 1303 -91 875 529 
Q 447 1150 447 2328 
Q 447 3434 972 4092 
Q 1497 4750 2381 4750 
Q 2619 4750 2861 4703 
Q 3103 4656 3366 4563 
z
" transform="scale(0.015625)"/>
       </defs>
       <use xlink:href="#DejaVuSans-30"/>
       <use xlink:href="#DejaVuSans-2e" transform="translate(63.623047 0)"/>
       <use xlink:href="#DejaVuSans-36" transform="translate(95.410156 0)"/>
      </g>
     </g>
    </g>
    <g id="xtick_5">
     <g id="line2d_9">
      <path d="M 321.434489 273.312 
L 321.434489 7.2 
" clip-path="url(#p110dbda4d8)" style="fill: none; stroke: #b0b0b0; stroke-width: 0.8; stroke-linecap: square"/>
     </g>
     <g id="line2d_10">
      <g>
       <use xlink:href="#m383a1d963c" x="321.434489" y="273.312" style="stroke: #000000; stroke-width: 0.8"/>
      </g>
     </g>
     <g id="text_5">
      <!-- 0.8 -->
      <g transform="translate(313.482926 287.910437) scale(0.1 -0.1)">
       <defs>
        <path id="DejaVuSans-38" d="M 2034 2216 
Q 1584 2216 1326 1975 
Q 1069 1734 1069 1313 
Q 1069 891 1326 650 
Q 1584 409 2034 409 
Q 2484 409 2743 651 
Q 3003 894 3003 1313 
Q 3003 1734 2745 1975 
Q 2488 2216 2034 2216 
z
M 1403 2484 
Q 997 2584 770 2862 
Q 544 3141 544 3541 
Q 544 4100 942 4425 
Q 1341 4750 2034 4750 
Q 2731 4750 3128 4425 
Q 3525 4100 3525 3541 
Q 3525 3141 3298 2862 
Q 3072 2584 2669 2484 
Q 3125 2378 3379 2068 
Q 3634 1759 3634 1313 
Q 3634 634 3220 271 
Q 2806 -91 2034 -91 
Q 1263 -91 848 271 
Q 434 634 434 1313 
Q 434 1759 690 2068 
Q 947 2378 1403 2484 
z
M 1172 3481 
Q 1172 3119 1398 2916 
Q 1625 2713 2034 2713 
Q 2441 2713 2670 2916 
Q 2900 3119 2900 3481 
Q 2900 3844 2670 4047 
Q 2441 4250 2034 4250 
Q 1625 4250 1398 4047 
Q 1172 3844 1172 3481 
z
" transform="scale(0.015625)"/>
       </defs>
       <use xlink:href="#DejaVuSans-30"/>
       <use xlink:href="#DejaVuSans-2e" transform="translate(63.623047 0)"/>
       <use xlink:href="#DejaVuSans-38" transform="translate(95.410156 0)"/>
      </g>
     </g>
    </g>
    <g id="xtick_6">
     <g id="line2d_11">
      <path d="M 386.365398 273.312 
L 386.365398 7.2 
" clip-path="url(#p110dbda4d8)" style="fill: none; stroke: #b0b0b0; stroke-width: 0.8; stroke-linecap: square"/>
     </g>
     <g id="line2d_12">
      <g>
       <use xlink:href="#m383a1d963c" x="386.365398" y="273.312" style="stroke: #000000; stroke-width: 0.8"/>
      </g>
     </g>
     <g id="text_6">
      <!-- 1.0 -->
      <g transform="translate(378.413835 287.910437) scale(0.1 -0.1)">
       <defs>
        <path id="DejaVuSans-31" d="M 794 531 
L 1825 531 
L 1825 4091 
L 703 3866 
L 703 4441 
L 1819 4666 
L 2450 4666 
L 2450 531 
L 3481 531 
L 3481 0 
L 794 0 
L 794 531 
z
" transform="scale(0.015625)"/>
       </defs>
       <use xlink:href="#DejaVuSans-31"/>
       <use xlink:href="#DejaVuSans-2e" transform="translate(63.623047 0)"/>
       <use xlink:href="#DejaVuSans-30" transform="translate(95.410156 0)"/>
      </g>
     </g>
    </g>
    <g id="text_7">
     <!-- sensitivity (normalized) -->
     <g transform="translate(165.302969 301.588562) scale(0.1 -0.1)">
      <defs>
       <path id="DejaVuSans-73" d="M 2834 3397 
L 2834 2853 
Q 2591 2978 2328 3040 
Q 2066 3103 1784 3103 
Q 1356 3103 1142 2972 
Q 928 2841 928 2578 
Q 928 2378 1081 2264 
Q 1234 2150 1697 2047 
L 1894 2003 
Q 2506 1872 2764 1633 
Q 3022 1394 3022 966 
Q 3022 478 2636 193 
Q 2250 -91 1575 -91 
Q 1294 -91 989 -36 
Q 684 19 347 128 
L 347 722 
Q 666 556 975 473 
Q 1284 391 1588 391 
Q 1994 391 2212 530 
Q 2431 669 2431 922 
Q 2431 1156 2273 1281 
Q 2116 1406 1581 1522 
L 1381 1569 
Q 847 1681 609 1914 
Q 372 2147 372 2553 
Q 372 3047 722 3315 
Q 1072 3584 1716 3584 
Q 2034 3584 2315 3537 
Q 2597 3491 2834 3397 
z
" transform="scale(0.015625)"/>
       <path id="DejaVuSans-65" d="M 3597 1894 
L 3597 1613 
L 953 1613 
Q 991 1019 1311 708 
Q 1631 397 2203 397 
Q 2534 397 2845 478 
Q 3156 559 3463 722 
L 3463 178 
Q 3153 47 2828 -22 
Q 2503 -91 2169 -91 
Q 1331 -91 842 396 
Q 353 884 353 1716 
Q 353 2575 817 3079 
Q 1281 3584 2069 3584 
Q 2775 3584 3186 3129 
Q 3597 2675 3597 1894 
z
M 3022 2063 
Q 3016 2534 2758 2815 
Q 2500 3097 2075 3097 
Q 1594 3097 1305 2825 
Q 1016 2553 972 2059 
L 3022 2063 
z
" transform="scale(0.015625)"/>
       <path id="DejaVuSans-6e" d="M 3513 2113 
L 3513 0 
L 2938 0 
L 2938 2094 
Q 2938 2591 2744 2837 
Q 2550 3084 2163 3084 
Q 1697 3084 1428 2787 
Q 1159 2491 1159 1978 
L 1159 0 
L 581 0 
L 581 3500 
L 1159 3500 
L 1159 2956 
Q 1366 3272 1645 3428 
Q 1925 3584 2291 3584 
Q 2894 3584 3203 3211 
Q 3513 2838 3513 2113 
z
" transform="scale(0.015625)"/>
       <path id="DejaVuSans-69" d="M 603 3500 
L 1178 3500 
L 1178 0 
L 603 0 
L 603 3500 
z
M 603 4863 
L 1178 4863 
L 1178 4134 
L 603 4134 
L 603 4863 
z
" transform="scale(0.015625)"/>
       <path id="DejaVuSans-74" d="M 1172 4494 
L 1172 3500 
L 2356 3500 
L 2356 3053 
L 1172 3053 
L 1172 1153 
Q 1172 725 1289 603 
Q 1406 481 1766 481 
L 2356 481 
L 2356 0 
L 1766 0 
Q 1100 0 847 248 
Q 594 497 594 1153 
L 594 3053 
L 172 3053 
L 172 3500 
L 594 3500 
L 594 4494 
L 1172 4494 
z
" transform="scale(0.015625)"/>
       <path id="DejaVuSans-76" d="M 191 3500 
L 800 3500 
L 1894 563 
L 2988 3500 
L 3597 3500 
L 2284 0 
L 1503 0 
L 191 3500 
z
" transform="scale(0.015625)"/>
       <path id="DejaVuSans-79" d="M 2059 -325 
Q 1816 -950 1584 -1140 
Q 1353 -1331 966 -1331 
L 506 -1331 
L 506 -850 
L 844 -850 
Q 1081 -850 1212 -737 
Q 1344 -625 1503 -206 
L 1606 56 
L 191 3500 
L 800 3500 
L 1894 763 
L 2988 3500 
L 3597 3500 
L 2059 -325 
z
" transform="scale(0.015625)"/>
       <path id="DejaVuSans-20" transform="scale(0.015625)"/>
       <path id="DejaVuSans-28" d="M 1984 4856 
Q 1566 4138 1362 3434 
Q 1159 2731 1159 2009 
Q 1159 1288 1364 580 
Q 1569 -128 1984 -844 
L 1484 -844 
Q 1016 -109 783 600 
Q 550 1309 550 2009 
Q 550 2706 781 3412 
Q 1013 4119 1484 4856 
L 1984 4856 
z
" transform="scale(0.015625)"/>
       <path id="DejaVuSans-6f" d="M 1959 3097 
Q 1497 3097 1228 2736 
Q 959 2375 959 1747 
Q 959 1119 1226 758 
Q 1494 397 1959 397 
Q 2419 397 2687 759 
Q 2956 1122 2956 1747 
Q 2956 2369 2687 2733 
Q 2419 3097 1959 3097 
z
M 1959 3584 
Q 2709 3584 3137 3096 
Q 3566 2609 3566 1747 
Q 3566 888 3137 398 
Q 2709 -91 1959 -91 
Q 1206 -91 779 398 
Q 353 888 353 1747 
Q 353 2609 779 3096 
Q 1206 3584 1959 3584 
z
" transform="scale(0.015625)"/>
       <path id="DejaVuSans-72" d="M 2631 2963 
Q 2534 3019 2420 3045 
Q 2306 3072 2169 3072 
Q 1681 3072 1420 2755 
Q 1159 2438 1159 1844 
L 1159 0 
L 581 0 
L 581 3500 
L 1159 3500 
L 1159 2956 
Q 1341 3275 1631 3429 
Q 1922 3584 2338 3584 
Q 2397 3584 2469 3576 
Q 2541 3569 2628 3553 
L 2631 2963 
z
" transform="scale(0.015625)"/>
       <path id="DejaVuSans-6d" d="M 3328 2828 
Q 3544 3216 3844 3400 
Q 4144 3584 4550 3584 
Q 5097 3584 5394 3201 
Q 5691 2819 5691 2113 
L 5691 0 
L 5113 0 
L 5113 2094 
Q 5113 2597 4934 2840 
Q 4756 3084 4391 3084 
Q 3944 3084 3684 2787 
Q 3425 2491 3425 1978 
L 3425 0 
L 2847 0 
L 2847 2094 
Q 2847 2600 2669 2842 
Q 2491 3084 2119 3084 
Q 1678 3084 1418 2786 
Q 1159 2488 1159 1978 
L 1159 0 
L 581 0 
L 581 3500 
L 1159 3500 
L 1159 2956 
Q 1356 3278 1631 3431 
Q 1906 3584 2284 3584 
Q 2666 3584 2933 3390 
Q 3200 3197 3328 2828 
z
" transform="scale(0.015625)"/>
       <path id="DejaVuSans-61" d="M 2194 1759 
Q 1497 1759 1228 1600 
Q 959 1441 959 1056 
Q 959 750 1161 570 
Q 1363 391 1709 391 
Q 2188 391 2477 730 
Q 2766 1069 2766 1631 
L 2766 1759 
L 2194 1759 
z
M 3341 1997 
L 3341 0 
L 2766 0 
L 2766 531 
Q 2569 213 2275 61 
Q 1981 -91 1556 -91 
Q 1019 -91 701 211 
Q 384 513 384 1019 
Q 384 1609 779 1909 
Q 1175 2209 1959 2209 
L 2766 2209 
L 2766 2266 
Q 2766 2663 2505 2880 
Q 2244 3097 1772 3097 
Q 1472 3097 1187 3025 
Q 903 2953 641 2809 
L 641 3341 
Q 956 3463 1253 3523 
Q 1550 3584 1831 3584 
Q 2591 3584 2966 3190 
Q 3341 2797 3341 1997 
z
" transform="scale(0.015625)"/>
       <path id="DejaVuSans-6c" d="M 603 4863 
L 1178 4863 
L 1178 0 
L 603 0 
L 603 4863 
z
" transform="scale(0.015625)"/>
       <path id="DejaVuSans-7a" d="M 353 3500 
L 3084 3500 
L 3084 2975 
L 922 459 
L 3084 459 
L 3084 0 
L 275 0 
L 275 525 
L 2438 3041 
L 353 3041 
L 353 3500 
z
" transform="scale(0.015625)"/>
       <path id="DejaVuSans-64" d="M 2906 2969 
L 2906 4863 
L 3481 4863 
L 3481 0 
L 2906 0 
L 2906 525 
Q 2725 213 2448 61 
Q 2172 -91 1784 -91 
Q 1150 -91 751 415 
Q 353 922 353 1747 
Q 353 2572 751 3078 
Q 1150 3584 1784 3584 
Q 2172 3584 2448 3432 
Q 2725 3281 2906 2969 
z
M 947 1747 
Q 947 1113 1208 752 
Q 1469 391 1925 391 
Q 2381 391 2643 752 
Q 2906 1113 2906 1747 
Q 2906 2381 2643 2742 
Q 2381 3103 1925 3103 
Q 1469 3103 1208 2742 
Q 947 2381 947 1747 
z
" transform="scale(0.015625)"/>
       <path id="DejaVuSans-29" d="M 513 4856 
L 1013 4856 
Q 1481 4119 1714 3412 
Q 1947 2706 1947 2009 
Q 1947 1309 1714 600 
Q 1481 -109 1013 -844 
L 513 -844 
Q 928 -128 1133 580 
Q 1338 1288 1338 2009 
Q 1338 2731 1133 3434 
Q 928 4138 513 4856 
z
" transform="scale(0.015625)"/>
      </defs>
      <use xlink:href="#DejaVuSans-73"/>
      <use xlink:href="#DejaVuSans-65" transform="translate(52.099609 0)"/>
      <use xlink:href="#DejaVuSans-6e" transform="translate(113.623047 0)"/>
      <use xlink:href="#DejaVuSans-73" transform="translate(177.001953 0)"/>
      <use xlink:href="#DejaVuSans-69" transform="translate(229.101562 0)"/>
      <use xlink:href="#DejaVuSans-74" transform="translate(256.884766 0)"/>
      <use xlink:href="#DejaVuSans-69" transform="translate(296.09375 0)"/>
      <use xlink:href="#DejaVuSans-76" transform="translate(323.876953 0)"/>
      <use xlink:href="#DejaVuSans-69" transform="translate(383.056641 0)"/>
      <use xlink:href="#DejaVuSans-74" transform="translate(410.839844 0)"/>
      <use xlink:href="#DejaVuSans-79" transform="translate(450.048828 0)"/>
      <use xlink:href="#DejaVuSans-20" transform="translate(509.228516 0)"/>
      <use xlink:href="#DejaVuSans-28" transform="translate(541.015625 0)"/>
      <use xlink:href="#DejaVuSans-6e" transform="translate(580.029297 0)"/>
      <use xlink:href="#DejaVuSans-6f" transform="translate(643.408203 0)"/>
      <use xlink:href="#DejaVuSans-72" transform="translate(704.589844 0)"/>
      <use xlink:href="#DejaVuSans-6d" transform="translate(743.953125 0)"/>
      <use xlink:href="#DejaVuSans-61" transform="translate(841.365234 0)"/>
      <use xlink:href="#DejaVuSans-6c" transform="translate(902.644531 0)"/>
      <use xlink:href="#DejaVuSans-69" transform="translate(930.427734 0)"/>
      <use xlink:href="#DejaVuSans-7a" transform="translate(958.210938 0)"/>
      <use xlink:href="#DejaVuSans-65" transform="translate(1010.701172 0)"/>
      <use xlink:href="#DejaVuSans-64" transform="translate(1072.224609 0)"/>
      <use xlink:href="#DejaVuSans-29" transform="translate(1135.701172 0)"/>
     </g>
    </g>
   </g>
   <g id="matplotlib.axis_2">
    <g id="ytick_1">
     <g id="line2d_13">
      <path d="M 45.478125 75.660941 
L 402.598125 75.660941 
" clip-path="url(#p110dbda4d8)" style="fill: none; stroke: #b0b0b0; stroke-width: 0.8; stroke-linecap: square"/>
     </g>
     <g id="line2d_14">
      <defs>
       <path id="mfdc4054b10" d="M 0 0 
L -3.5 0 
" style="stroke: #000000; stroke-width: 0.8"/>
      </defs>
      <g>
       <use xlink:href="#mfdc4054b10" x="45.478125" y="75.660941" style="stroke: #000000; stroke-width: 0.8"/>
      </g>
     </g>
     <g id="text_8">
      <!-- $\mathdefault{10^{0}}$ -->
      <g transform="translate(20.878125 79.46016) scale(0.1 -0.1)">
       <use xlink:href="#DejaVuSans-31" transform="translate(0 0.765625)"/>
       <use xlink:href="#DejaVuSans-30" transform="translate(63.623047 0.765625)"/>
       <use xlink:href="#DejaVuSans-30" transform="translate(128.203125 39.046875) scale(0.7)"/>
      </g>
     </g>
    </g>
    <g id="ytick_2">
     <g id="line2d_15">
      <path d="M 45.478125 156.300941 
L 402.598125 156.300941 
" clip-path="url(#p110dbda4d8)" style="fill: none; stroke: #b0b0b0; stroke-width: 0.8; stroke-linecap: square"/>
     </g>
     <g id="line2d_16">
      <g>
       <use xlink:href="#mfdc4054b10" x="45.478125" y="156.300941" style="stroke: #000000; stroke-width: 0.8"/>
      </g>
     </g>
     <g id="text_9">
      <!-- $\mathdefault{10^{1}}$ -->
      <g transform="translate(20.878125 160.10016) scale(0.1 -0.1)">
       <use xlink:href="#DejaVuSans-31" transform="translate(0 0.684375)"/>
       <use xlink:href="#DejaVuSans-30" transform="translate(63.623047 0.684375)"/>
       <use xlink:href="#DejaVuSans-31" transform="translate(128.203125 38.965625) scale(0.7)"/>
      </g>
     </g>
    </g>
    <g id="ytick_3">
     <g id="line2d_17">
      <path d="M 45.478125 236.940941 
L 402.598125 236.940941 
" clip-path="url(#p110dbda4d8)" style="fill: none; stroke: #b0b0b0; stroke-width: 0.8; stroke-linecap: square"/>
     </g>
     <g id="line2d_18">
      <g>
       <use xlink:href="#mfdc4054b10" x="45.478125" y="236.940941" style="stroke: #000000; stroke-width: 0.8"/>
      </g>
     </g>
     <g id="text_10">
      <!-- $\mathdefault{10^{2}}$ -->
      <g transform="translate(20.878125 240.74016) scale(0.1 -0.1)">
       <use xlink:href="#DejaVuSans-31" transform="translate(0 0.765625)"/>
       <use xlink:href="#DejaVuSans-30" transform="translate(63.623047 0.765625)"/>
       <use xlink:href="#DejaVuSans-32" transform="translate(128.203125 39.046875) scale(0.7)"/>
      </g>
     </g>
    </g>
    <g id="ytick_4">
     <g id="line2d_19">
      <defs>
       <path id="m9964ca71e2" d="M 0 0 
L -2 0 
" style="stroke: #000000; stroke-width: 0.6"/>
      </defs>
      <g>
       <use xlink:href="#m9964ca71e2" x="45.478125" y="19.296" style="stroke: #000000; stroke-width: 0.6"/>
      </g>
     </g>
    </g>
    <g id="ytick_5">
     <g id="line2d_20">
      <g>
       <use xlink:href="#m9964ca71e2" x="45.478125" y="33.495999" style="stroke: #000000; stroke-width: 0.6"/>
      </g>
     </g>
    </g>
    <g id="ytick_6">
     <g id="line2d_21">
      <g>
       <use xlink:href="#m9964ca71e2" x="45.478125" y="43.571059" style="stroke: #000000; stroke-width: 0.6"/>
      </g>
     </g>
    </g>
    <g id="ytick_7">
     <g id="line2d_22">
      <g>
       <use xlink:href="#m9964ca71e2" x="45.478125" y="51.385882" style="stroke: #000000; stroke-width: 0.6"/>
      </g>
     </g>
    </g>
    <g id="ytick_8">
     <g id="line2d_23">
      <g>
       <use xlink:href="#m9964ca71e2" x="45.478125" y="57.771058" style="stroke: #000000; stroke-width: 0.6"/>
      </g>
     </g>
    </g>
    <g id="ytick_9">
     <g id="line2d_24">
      <g>
       <use xlink:href="#m9964ca71e2" x="45.478125" y="63.169647" style="stroke: #000000; stroke-width: 0.6"/>
      </g>
     </g>
    </g>
    <g id="ytick_10">
     <g id="line2d_25">
      <g>
       <use xlink:href="#m9964ca71e2" x="45.478125" y="67.846118" style="stroke: #000000; stroke-width: 0.6"/>
      </g>
     </g>
    </g>
    <g id="ytick_11">
     <g id="line2d_26">
      <g>
       <use xlink:href="#m9964ca71e2" x="45.478125" y="71.971057" style="stroke: #000000; stroke-width: 0.6"/>
      </g>
     </g>
    </g>
    <g id="ytick_12">
     <g id="line2d_27">
      <g>
       <use xlink:href="#m9964ca71e2" x="45.478125" y="99.936" style="stroke: #000000; stroke-width: 0.6"/>
      </g>
     </g>
    </g>
    <g id="ytick_13">
     <g id="line2d_28">
      <g>
       <use xlink:href="#m9964ca71e2" x="45.478125" y="114.135999" style="stroke: #000000; stroke-width: 0.6"/>
      </g>
     </g>
    </g>
    <g id="ytick_14">
     <g id="line2d_29">
      <g>
       <use xlink:href="#m9964ca71e2" x="45.478125" y="124.211059" style="stroke: #000000; stroke-width: 0.6"/>
      </g>
     </g>
    </g>
    <g id="ytick_15">
     <g id="line2d_30">
      <g>
       <use xlink:href="#m9964ca71e2" x="45.478125" y="132.025882" style="stroke: #000000; stroke-width: 0.6"/>
      </g>
     </g>
    </g>
    <g id="ytick_16">
     <g id="line2d_31">
      <g>
       <use xlink:href="#m9964ca71e2" x="45.478125" y="138.411058" style="stroke: #000000; stroke-width: 0.6"/>
      </g>
     </g>
    </g>
    <g id="ytick_17">
     <g id="line2d_32">
      <g>
       <use xlink:href="#m9964ca71e2" x="45.478125" y="143.809647" style="stroke: #000000; stroke-width: 0.6"/>
      </g>
     </g>
    </g>
    <g id="ytick_18">
     <g id="line2d_33">
      <g>
       <use xlink:href="#m9964ca71e2" x="45.478125" y="148.486118" style="stroke: #000000; stroke-width: 0.6"/>
      </g>
     </g>
    </g>
    <g id="ytick_19">
     <g id="line2d_34">
      <g>
       <use xlink:href="#m9964ca71e2" x="45.478125" y="152.611057" style="stroke: #000000; stroke-width: 0.6"/>
      </g>
     </g>
    </g>
    <g id="ytick_20">
     <g id="line2d_35">
      <g>
       <use xlink:href="#m9964ca71e2" x="45.478125" y="180.576" style="stroke: #000000; stroke-width: 0.6"/>
      </g>
     </g>
    </g>
    <g id="ytick_21">
     <g id="line2d_36">
      <g>
       <use xlink:href="#m9964ca71e2" x="45.478125" y="194.775999" style="stroke: #000000; stroke-width: 0.6"/>
      </g>
     </g>
    </g>
    <g id="ytick_22">
     <g id="line2d_37">
      <g>
       <use xlink:href="#m9964ca71e2" x="45.478125" y="204.851059" style="stroke: #000000; stroke-width: 0.6"/>
      </g>
     </g>
    </g>
    <g id="ytick_23">
     <g id="line2d_38">
      <g>
       <use xlink:href="#m9964ca71e2" x="45.478125" y="212.665882" style="stroke: #000000; stroke-width: 0.6"/>
      </g>
     </g>
    </g>
    <g id="ytick_24">
     <g id="line2d_39">
      <g>
       <use xlink:href="#m9964ca71e2" x="45.478125" y="219.051058" style="stroke: #000000; stroke-width: 0.6"/>
      </g>
     </g>
    </g>
    <g id="ytick_25">
     <g id="line2d_40">
      <g>
       <use xlink:href="#m9964ca71e2" x="45.478125" y="224.449647" style="stroke: #000000; stroke-width: 0.6"/>
      </g>
     </g>
    </g>
    <g id="ytick_26">
     <g id="line2d_41">
      <g>
       <use xlink:href="#m9964ca71e2" x="45.478125" y="229.126118" style="stroke: #000000; stroke-width: 0.6"/>
      </g>
     </g>
    </g>
    <g id="ytick_27">
     <g id="line2d_42">
      <g>
       <use xlink:href="#m9964ca71e2" x="45.478125" y="233.251057" style="stroke: #000000; stroke-width: 0.6"/>
      </g>
     </g>
    </g>
    <g id="ytick_28">
     <g id="line2d_43">
      <g>
       <use xlink:href="#m9964ca71e2" x="45.478125" y="261.216" style="stroke: #000000; stroke-width: 0.6"/>
      </g>
     </g>
    </g>
    <g id="text_11">
     <!-- AB/2 [m] -->
     <g transform="translate(14.798438 162.333344) rotate(-90) scale(0.1 -0.1)">
      <defs>
       <path id="DejaVuSans-41" d="M 2188 4044 
L 1331 1722 
L 3047 1722 
L 2188 4044 
z
M 1831 4666 
L 2547 4666 
L 4325 0 
L 3669 0 
L 3244 1197 
L 1141 1197 
L 716 0 
L 50 0 
L 1831 4666 
z
" transform="scale(0.015625)"/>
       <path id="DejaVuSans-42" d="M 1259 2228 
L 1259 519 
L 2272 519 
Q 2781 519 3026 730 
Q 3272 941 3272 1375 
Q 3272 1813 3026 2020 
Q 2781 2228 2272 2228 
L 1259 2228 
z
M 1259 4147 
L 1259 2741 
L 2194 2741 
Q 2656 2741 2882 2914 
Q 3109 3088 3109 3444 
Q 3109 3797 2882 3972 
Q 2656 4147 2194 4147 
L 1259 4147 
z
M 628 4666 
L 2241 4666 
Q 2963 4666 3353 4366 
Q 3744 4066 3744 3513 
Q 3744 3084 3544 2831 
Q 3344 2578 2956 2516 
Q 3422 2416 3680 2098 
Q 3938 1781 3938 1306 
Q 3938 681 3513 340 
Q 3088 0 2303 0 
L 628 0 
L 628 4666 
z
" transform="scale(0.015625)"/>
       <path id="DejaVuSans-2f" d="M 1625 4666 
L 2156 4666 
L 531 -594 
L 0 -594 
L 1625 4666 
z
" transform="scale(0.015625)"/>
       <path id="DejaVuSans-5b" d="M 550 4863 
L 1875 4863 
L 1875 4416 
L 1125 4416 
L 1125 -397 
L 1875 -397 
L 1875 -844 
L 550 -844 
L 550 4863 
z
" transform="scale(0.015625)"/>
       <path id="DejaVuSans-5d" d="M 1947 4863 
L 1947 -844 
L 622 -844 
L 622 -397 
L 1369 -397 
L 1369 4416 
L 622 4416 
L 622 4863 
L 1947 4863 
z
" transform="scale(0.015625)"/>
      </defs>
      <use xlink:href="#DejaVuSans-41"/>
      <use xlink:href="#DejaVuSans-42" transform="translate(68.408203 0)"/>
      <use xlink:href="#DejaVuSans-2f" transform="translate(137.011719 0)"/>
      <use xlink:href="#DejaVuSans-32" transform="translate(170.703125 0)"/>
      <use xlink:href="#DejaVuSans-20" transform="translate(234.326172 0)"/>
      <use xlink:href="#DejaVuSans-5b" transform="translate(266.113281 0)"/>
      <use xlink:href="#DejaVuSans-6d" transform="translate(305.126953 0)"/>
      <use xlink:href="#DejaVuSans-5d" transform="translate(402.539062 0)"/>
     </g>
    </g>
   </g>
   <g id="line2d_44">
    <path d="M 291.585044 19.296 
L 303.376673 21.7152 
L 315.114704 24.1344 
L 326.64961 26.5536 
L 337.807062 28.9728 
L 348.38816 31.392 
L 358.171087 33.8112 
L 366.914558 36.2304 
L 374.363397 38.6496 
L 380.256477 41.0688 
L 384.337068 43.488 
L 386.365398 45.9072 
L 386.132899 48.3264 
L 383.477256 50.7456 
L 378.297037 53.1648 
L 370.564445 55.584 
L 360.334634 58.0032 
L 347.750164 60.4224 
L 333.039568 62.8416 
L 316.509561 65.2608 
L 298.531203 67.68 
L 279.521026 70.0992 
L 259.918805 72.5184 
L 240.164052 74.9376 
L 220.673419 77.3568 
L 201.820996 79.776 
L 183.923071 82.1952 
L 167.228268 84.6144 
L 151.913342 87.0336 
L 138.084275 89.4528 
L 125.781822 91.872 
L 114.990339 94.2912 
L 105.648608 96.7104 
L 97.661412 99.1296 
L 90.910786 101.5488 
L 85.266173 103.968 
L 80.592941 106.3872 
L 76.759072 108.8064 
L 73.639987 111.2256 
L 71.121686 113.6448 
L 69.102472 116.064 
L 67.493532 118.4832 
L 66.218711 120.9024 
L 65.213722 123.3216 
L 64.425032 125.7408 
L 63.808582 128.16 
L 63.328485 130.5792 
L 62.955773 132.9984 
L 62.667242 135.4176 
L 62.444436 137.8368 
L 62.272762 140.256 
L 62.140743 142.6752 
L 62.03939 145.0944 
L 61.961699 147.5136 
L 61.902222 149.9328 
L 61.856743 152.352 
L 61.822002 154.7712 
L 61.795487 157.1904 
L 61.775266 159.6096 
L 61.759856 162.0288 
L 61.748119 164.448 
L 61.739184 166.8672 
L 61.732385 169.2864 
L 61.727213 171.7056 
L 61.723281 174.1248 
L 61.720292 176.544 
L 61.718021 178.9632 
L 61.716295 181.3824 
L 61.714985 183.8016 
L 61.713989 186.2208 
L 61.713233 188.64 
L 61.712659 191.0592 
L 61.712224 193.4784 
L 61.711893 195.8976 
L 61.711642 198.3168 
L 61.711451 200.736 
L 61.711307 203.1552 
L 61.711197 205.5744 
L 61.711114 207.9936 
L 61.71105 210.4128 
L 61.711002 212.832 
L 61.710966 215.2512 
L 61.710938 217.6704 
L 61.710918 220.0896 
L 61.710902 222.5088 
L 61.71089 224.928 
L 61.71088 227.3472 
L 61.710873 229.7664 
L 61.710868 232.1856 
L 61.710864 234.6048 
L 61.710861 237.024 
L 61.710859 239.4432 
L 61.710857 241.8624 
L 61.710856 244.2816 
L 61.710855 246.7008 
L 61.710854 249.12 
L 61.710853 251.5392 
L 61.710853 253.9584 
L 61.710853 256.3776 
L 61.710852 258.7968 
L 61.710852 261.216 
" clip-path="url(#p110dbda4d8)" style="fill: none; stroke: #1f77b4; stroke-width: 1.5; stroke-linecap: square"/>
   </g>
   <g id="line2d_45">
    <path d="M 176.193828 19.296 
L 183.895502 21.7152 
L 192.039719 24.1344 
L 200.634659 26.5536 
L 209.684259 28.9728 
L 219.18702 31.392 
L 229.134601 33.8112 
L 239.510201 36.2304 
L 250.286701 38.6496 
L 261.424585 41.0688 
L 272.869662 43.488 
L 284.550639 45.9072 
L 296.376626 48.3264 
L 308.234713 50.7456 
L 319.987793 53.1648 
L 331.472885 55.584 
L 342.500275 58.0032 
L 352.853848 60.4224 
L 362.293045 62.8416 
L 370.556877 65.2608 
L 377.370425 67.68 
L 382.454092 70.0992 
L 385.535732 72.5184 
L 386.365398 74.9376 
L 384.732125 77.3568 
L 380.481627 79.776 
L 373.533371 82.1952 
L 363.89513 84.6144 
L 351.672952 87.0336 
L 337.07466 89.4528 
L 320.405537 91.872 
L 302.055678 94.2912 
L 282.479646 96.7104 
L 262.170138 99.1296 
L 241.628365 101.5488 
L 221.334321 103.968 
L 201.720155 106.3872 
L 183.149295 108.8064 
L 165.903044 111.2256 
L 150.175188 113.6448 
L 136.074104 116.064 
L 123.630946 118.4832 
L 112.812034 120.9024 
L 103.533408 123.3216 
L 95.675751 125.7408 
L 89.098245 128.16 
L 83.650436 130.5792 
L 79.181651 132.9984 
L 75.547882 135.4176 
L 72.616345 137.8368 
L 70.268071 140.256 
L 68.398951 142.6752 
L 66.919654 145.0944 
L 65.754798 147.5136 
L 64.841667 149.9328 
L 64.128716 152.352 
L 63.574024 154.7712 
L 63.143806 157.1904 
L 62.811047 159.6096 
L 62.554291 162.0288 
L 62.356601 164.448 
L 62.204673 166.8672 
L 62.088105 169.2864 
L 61.998796 171.7056 
L 61.930458 174.1248 
L 61.878225 176.544 
L 61.838339 178.9632 
L 61.807907 181.3824 
L 61.784705 183.8016 
L 61.767028 186.2208 
L 61.753567 188.64 
L 61.743322 191.0592 
L 61.735527 193.4784 
L 61.729599 195.8976 
L 61.725093 198.3168 
L 61.721667 200.736 
L 61.719065 203.1552 
L 61.717088 205.5744 
L 61.715586 207.9936 
L 61.714445 210.4128 
L 61.713579 212.832 
L 61.712922 215.2512 
L 61.712423 217.6704 
L 61.712044 220.0896 
L 61.711756 222.5088 
L 61.711538 224.928 
L 61.711373 227.3472 
L 61.711247 229.7664 
L 61.711152 232.1856 
L 61.711079 234.6048 
L 61.711024 237.024 
L 61.710983 239.4432 
L 61.710951 241.8624 
L 61.710927 244.2816 
L 61.710909 246.7008 
L 61.710895 249.12 
L 61.710885 251.5392 
L 61.710877 253.9584 
L 61.710871 256.3776 
L 61.710866 258.7968 
L 61.710863 261.216 
" clip-path="url(#p110dbda4d8)" style="fill: none; stroke: #ff7f0e; stroke-width: 1.5; stroke-linecap: square"/>
   </g>
   <g id="line2d_46">
    <path d="M 107.201914 19.296 
L 110.426194 21.7152 
L 113.874378 24.1344 
L 117.560952 26.5536 
L 121.501092 28.9728 
L 125.710633 31.392 
L 130.206028 33.8112 
L 135.004269 36.2304 
L 140.122794 38.6496 
L 145.579344 41.0688 
L 151.391783 43.488 
L 157.577857 45.9072 
L 164.154894 48.3264 
L 171.139409 50.7456 
L 178.546631 53.1648 
L 186.389901 55.584 
L 194.679942 58.0032 
L 203.423977 60.4224 
L 212.624663 62.8416 
L 222.278837 65.2608 
L 232.376036 67.68 
L 242.89679 70.0992 
L 253.810678 72.5184 
L 265.074152 74.9376 
L 276.628165 77.3568 
L 288.395653 79.776 
L 300.278968 82.1952 
L 312.15741 84.6144 
L 323.885058 87.0336 
L 335.289172 89.4528 
L 346.169512 91.872 
L 356.298982 94.2912 
L 365.426065 96.7104 
L 373.279511 99.1296 
L 379.575719 101.5488 
L 384.029089 103.968 
L 386.365398 106.3872 
L 386.337906 108.8064 
L 383.74541 111.2256 
L 378.450965 113.6448 
L 370.399489 116.064 
L 359.632083 118.4832 
L 346.294829 120.9024 
L 330.640069 123.3216 
L 313.018898 125.7408 
L 293.864636 128.16 
L 273.668396 130.5792 
L 252.94905 132.9984 
L 232.220914 135.4176 
L 211.962787 137.8368 
L 192.591791 140.256 
L 174.444548 142.6752 
L 157.767037 145.0944 
L 142.713107 147.5136 
L 129.350491 149.9328 
L 117.672386 152.352 
L 107.612338 154.7712 
L 99.060283 157.1904 
L 91.877958 159.6096 
L 85.912456 162.0288 
L 81.00724 164.448 
L 77.010409 166.8672 
L 73.780338 169.2864 
L 71.189078 171.7056 
L 69.12394 174.1248 
L 67.487744 176.544 
L 66.198155 178.9632 
L 65.186453 181.3824 
L 64.396012 183.8016 
L 63.78068 186.2208 
L 63.303196 188.64 
L 62.933723 191.0592 
L 62.648536 193.4784 
L 62.428887 195.8976 
L 62.260039 198.3168 
L 62.130459 200.736 
L 62.031162 203.1552 
L 61.955168 205.5744 
L 61.897073 207.9936 
L 61.852706 210.4128 
L 61.818852 212.832 
L 61.793039 215.2512 
L 61.77337 217.6704 
L 61.758392 220.0896 
L 61.74699 222.5088 
L 61.738316 224.928 
L 61.731719 227.3472 
L 61.726703 229.7664 
L 61.722891 232.1856 
L 61.719994 234.6048 
L 61.717793 237.024 
L 61.716122 239.4432 
L 61.714852 241.8624 
L 61.713888 244.2816 
L 61.713156 246.7008 
L 61.712601 249.12 
L 61.712179 251.5392 
L 61.711859 253.9584 
L 61.711616 256.3776 
L 61.711432 258.7968 
L 61.711292 261.216 
" clip-path="url(#p110dbda4d8)" style="fill: none; stroke: #2ca02c; stroke-width: 1.5; stroke-linecap: square"/>
   </g>
   <g id="line2d_47">
    <path d="M 84.422138 19.296 
L 86.042817 21.7152 
L 87.778576 24.1344 
L 89.637452 26.5536 
L 91.628016 28.9728 
L 93.759397 31.392 
L 96.041312 33.8112 
L 98.484091 36.2304 
L 101.098702 38.6496 
L 103.896778 41.0688 
L 106.890629 43.488 
L 110.093265 45.9072 
L 113.5184 48.3264 
L 117.18045 50.7456 
L 121.094524 53.1648 
L 125.276396 55.584 
L 129.742462 58.0032 
L 134.509668 60.4224 
L 139.595416 62.8416 
L 145.017429 65.2608 
L 150.793573 67.68 
L 156.941627 70.0992 
L 163.478981 72.5184 
L 170.422264 74.9376 
L 177.786865 77.3568 
L 185.586357 79.776 
L 193.831774 82.1952 
L 202.530745 84.6144 
L 211.686451 87.0336 
L 221.296385 89.4528 
L 231.350896 91.872 
L 241.831502 94.2912 
L 252.708965 96.7104 
L 263.941137 99.1296 
L 275.470594 101.5488 
L 287.222124 103.968 
L 299.100147 106.3872 
L 310.986218 108.8064 
L 322.736802 111.2256 
L 334.181585 113.6448 
L 345.122673 116.064 
L 355.335068 118.4832 
L 364.568888 120.9024 
L 372.553824 123.3216 
L 379.006246 125.7408 
L 383.639291 128.16 
L 386.176027 130.5792 
L 386.365398 132.9984 
L 384.000271 135.4176 
L 378.93631 137.8368 
L 371.10993 140.256 
L 360.553174 142.6752 
L 347.403216 145.0944 
L 331.904439 147.5136 
L 314.401689 149.9328 
L 295.32438 152.352 
L 275.162425 154.7712 
L 254.436266 157.1904 
L 233.664268 159.6096 
L 213.331225 162.0288 
L 193.861464 164.448 
L 175.599256 166.8672 
L 158.797956 169.2864 
L 143.617965 171.7056 
L 130.132388 174.1248 
L 118.338454 176.544 
L 108.172418 178.9632 
L 99.525739 181.3824 
L 92.260702 183.8016 
L 86.224211 186.2208 
L 81.259026 188.64 
L 77.212229 191.0592 
L 73.941025 193.4784 
L 71.316256 195.8976 
L 69.22407 198.3168 
L 67.566213 200.736 
L 66.2594 203.1552 
L 65.234084 205.5744 
L 64.432938 207.9936 
L 63.809228 210.4128 
L 63.325214 212.832 
L 62.950669 215.2512 
L 62.661554 217.6704 
L 62.438872 220.0896 
L 62.267686 222.5088 
L 62.136309 224.928 
L 62.035632 227.3472 
L 61.95858 229.7664 
L 61.899677 232.1856 
L 61.854691 234.6048 
L 61.820364 237.024 
L 61.79419 239.4432 
L 61.774246 241.8624 
L 61.759058 244.2816 
L 61.747497 246.7008 
L 61.738701 249.12 
L 61.732012 251.5392 
L 61.726926 253.9584 
L 61.72306 256.3776 
L 61.720122 258.7968 
L 61.717891 261.216 
" clip-path="url(#p110dbda4d8)" style="fill: none; stroke: #d62728; stroke-width: 1.5; stroke-linecap: square"/>
   </g>
   <g id="line2d_48">
    <path d="M 73.061119 19.296 
L 73.872432 21.7152 
L 74.741665 24.1344 
L 75.672937 26.5536 
L 76.670657 28.9728 
L 77.739539 31.392 
L 78.88463 33.8112 
L 80.111324 36.2304 
L 81.425392 38.6496 
L 82.832998 41.0688 
L 84.340732 43.488 
L 85.955628 45.9072 
L 87.685199 48.3264 
L 89.537455 50.7456 
L 91.520939 53.1648 
L 93.644752 55.584 
L 95.918577 58.0032 
L 98.352712 60.4224 
L 100.958092 62.8416 
L 103.746314 65.2608 
L 106.729653 67.68 
L 109.921083 70.0992 
L 113.334279 72.5184 
L 116.983623 74.9376 
L 120.884187 77.3568 
L 125.051712 79.776 
L 129.502562 82.1952 
L 134.253658 84.6144 
L 139.322381 87.0336 
L 144.72644 89.4528 
L 150.483699 91.872 
L 156.611949 94.2912 
L 163.128607 96.7104 
L 170.050353 99.1296 
L 177.392652 101.5488 
L 185.169188 103.968 
L 193.391145 106.3872 
L 202.06635 108.8064 
L 211.198242 111.2256 
L 220.784639 113.6448 
L 230.816293 116.064 
L 241.275217 118.4832 
L 252.132772 120.9024 
L 263.347519 123.3216 
L 274.862864 125.7408 
L 286.604551 128.16 
L 298.478077 130.5792 
L 310.366186 132.9984 
L 322.12662 135.4176 
L 333.590393 137.8368 
L 344.56093 140.256 
L 354.81446 142.6752 
L 364.102145 145.0944 
L 372.154399 147.5136 
L 378.687862 149.9328 
L 383.415345 152.352 
L 386.058844 154.7712 
L 386.365398 157.1904 
L 384.12507 159.6096 
L 379.189865 162.0288 
L 371.491809 164.448 
L 361.058067 166.8672 
L 348.020791 169.2864 
L 332.619607 171.7056 
L 315.195299 174.1248 
L 296.174309 176.544 
L 276.044954 178.9632 
L 255.327588 181.3824 
L 234.541969 183.8016 
L 214.175549 186.2208 
L 194.656246 188.64 
L 176.332452 191.0592 
L 159.46176 193.4784 
L 144.208569 195.8976 
L 130.649468 198.3168 
L 118.784495 200.736 
L 108.551978 203.1552 
L 99.844737 205.5744 
L 92.525788 207.9936 
L 86.442251 210.4128 
L 81.436722 212.832 
L 77.355847 215.2512 
L 74.056241 217.6704 
L 71.408076 220.0896 
L 69.296813 222.5088 
L 67.623541 224.928 
L 66.304369 227.3472 
L 65.269214 229.7664 
L 64.460283 232.1856 
L 63.830445 234.6048 
L 63.341629 237.024 
L 62.963338 239.4432 
L 62.671311 241.8624 
L 62.446372 244.2816 
L 62.273441 246.7008 
L 62.140719 249.12 
L 62.039007 251.5392 
L 61.96116 253.9584 
L 61.901647 256.3776 
L 61.856194 258.7968 
L 61.82151 261.216 
" clip-path="url(#p110dbda4d8)" style="fill: none; stroke: #9467bd; stroke-width: 1.5; stroke-linecap: square"/>
   </g>
   <g id="line2d_49">
    <path d="M 66.248304 19.296 
L 66.57279 21.7152 
L 66.920477 24.1344 
L 67.293022 26.5536 
L 67.692202 28.9728 
L 68.119918 31.392 
L 68.578208 33.8112 
L 69.069257 36.2304 
L 69.595402 38.6496 
L 70.159149 41.0688 
L 70.763179 43.488 
L 71.410366 45.9072 
L 72.103787 48.3264 
L 72.846736 50.7456 
L 73.642741 53.1648 
L 74.495577 55.584 
L 75.409287 58.0032 
L 76.388196 60.4224 
L 77.436934 62.8416 
L 78.560452 65.2608 
L 79.764047 67.68 
L 81.053382 70.0992 
L 82.434512 72.5184 
L 83.913905 74.9376 
L 85.498472 77.3568 
L 87.195587 79.776 
L 89.013123 82.1952 
L 90.959471 84.6144 
L 93.043575 87.0336 
L 95.274955 89.4528 
L 97.663735 91.872 
L 100.220672 94.2912 
L 102.957176 96.7104 
L 105.885333 99.1296 
L 109.017921 101.5488 
L 112.36842 103.968 
L 115.951015 106.3872 
L 119.780588 108.8064 
L 123.872695 111.2256 
L 128.243531 113.6448 
L 132.909867 116.064 
L 137.888962 118.4832 
L 143.198447 120.9024 
L 148.856155 123.3216 
L 154.879913 125.7408 
L 161.287265 128.16 
L 168.095124 130.5792 
L 175.319328 132.9984 
L 182.974097 135.4176 
L 191.071362 137.8368 
L 199.619945 140.256 
L 208.624576 142.6752 
L 218.084722 145.0944 
L 227.993196 147.5136 
L 238.334551 149.9328 
L 249.08323 152.352 
L 260.20148 154.7712 
L 271.637053 157.1904 
L 283.32073 159.6096 
L 295.163749 162.0288 
L 307.05526 164.448 
L 318.859984 166.8672 
L 330.416318 169.2864 
L 341.5352 171.7056 
L 352.000123 174.1248 
L 361.568747 176.544 
L 369.976579 178.9632 
L 376.943194 181.3824 
L 382.181353 183.8016 
L 385.4092 186.2208 
L 386.365398 188.64 
L 384.82664 191.0592 
L 380.626462 193.4784 
L 373.67375 195.8976 
L 363.968884 198.3168 
L 351.615225 200.736 
L 336.823759 203.1552 
L 319.909233 205.5744 
L 301.27709 207.9936 
L 281.401728 210.4128 
L 260.798008 212.832 
L 239.988993 215.2512 
L 219.473621 217.6704 
L 199.697962 220.0896 
L 181.033078 222.5088 
L 163.761353 224.928 
L 148.071788 227.3472 
L 134.063471 229.7664 
L 121.755491 232.1856 
L 111.101057 234.6048 
L 102.003534 237.024 
L 94.33244 239.4432 
L 87.937927 241.8624 
L 82.662869 244.2816 
L 78.352183 246.7008 
L 74.859425 249.12 
L 72.050956 251.5392 
L 69.808118 253.9584 
L 68.027903 256.3776 
L 66.62255 258.7968 
L 65.518466 261.216 
" clip-path="url(#p110dbda4d8)" style="fill: none; stroke: #8c564b; stroke-width: 1.5; stroke-linecap: square"/>
   </g>
   <g id="line2d_50">
    <path d="M 63.979495 19.296 
L 64.141744 21.7152 
L 64.315595 24.1344 
L 64.501879 26.5536 
L 64.701484 28.9728 
L 64.915364 31.392 
L 65.144539 33.8112 
L 65.390101 36.2304 
L 65.653223 38.6496 
L 65.93516 41.0688 
L 66.237256 43.488 
L 66.560953 45.9072 
L 66.907793 48.3264 
L 67.279432 50.7456 
L 67.677639 53.1648 
L 68.104314 55.584 
L 68.56149 58.0032 
L 69.051344 60.4224 
L 69.576208 62.8416 
L 70.138583 65.2608 
L 70.741144 67.68 
L 71.386757 70.0992 
L 72.078492 72.5184 
L 72.819634 74.9376 
L 73.613703 77.3568 
L 74.464467 79.776 
L 75.375956 82.1952 
L 76.352488 84.6144 
L 77.398678 87.0336 
L 78.519469 89.4528 
L 79.720144 91.872 
L 81.006352 94.2912 
L 82.384135 96.7104 
L 83.859945 99.1296 
L 85.440677 101.5488 
L 87.133689 103.968 
L 88.946835 106.3872 
L 90.888488 108.8064 
L 92.967571 111.2256 
L 95.193584 113.6448 
L 97.576629 116.064 
L 100.127441 118.4832 
L 102.857405 120.9024 
L 105.778583 123.3216 
L 108.90373 125.7408 
L 112.246299 128.16 
L 115.820452 130.5792 
L 119.641044 132.9984 
L 123.723611 135.4176 
L 128.084324 137.8368 
L 132.739936 140.256 
L 137.70769 142.6752 
L 143.005204 145.0944 
L 148.65031 147.5136 
L 154.660838 149.9328 
L 161.054348 152.352 
L 167.847779 154.7712 
L 175.057017 157.1904 
L 182.696349 159.6096 
L 190.777798 162.0288 
L 199.31031 164.448 
L 208.29878 166.8672 
L 217.742877 169.2864 
L 227.635676 171.7056 
L 237.962047 174.1248 
L 248.696823 176.544 
L 259.802714 178.9632 
L 271.228024 181.3824 
L 282.904169 183.8016 
L 294.743116 186.2208 
L 306.63483 188.64 
L 318.444925 191.0592 
L 330.012741 193.4784 
L 341.150186 195.8976 
L 351.641698 198.3168 
L 361.245789 200.736 
L 369.698651 203.1552 
L 376.720278 205.5744 
L 382.023479 207.9936 
L 385.325966 210.4128 
L 386.365398 212.832 
L 384.91682 215.2512 
L 380.811461 217.6704 
L 373.955281 220.0896 
L 364.345241 222.5088 
L 352.080987 224.928 
L 337.369771 227.3472 
L 320.522899 229.7664 
L 301.942984 232.1856 
L 282.102487 234.6048 
L 261.515403 237.024 
L 240.705081 239.4432 
L 220.171823 241.8624 
L 200.363962 244.2816 
L 181.655453 246.7008 
L 164.331891 249.12 
L 148.585502 251.5392 
L 134.518355 253.9584 
L 122.152088 256.3776 
L 111.441924 258.7968 
L 102.292675 261.216 
" clip-path="url(#p110dbda4d8)" style="fill: none; stroke: #e377c2; stroke-width: 1.5; stroke-linecap: square"/>
   </g>
   <g id="line2d_51">
    <path d="M 62.845154 19.296 
L 62.926278 21.7152 
L 63.013204 24.1344 
L 63.106347 26.5536 
L 63.206151 28.9728 
L 63.313093 31.392 
L 63.427683 33.8112 
L 63.550468 36.2304 
L 63.682034 38.6496 
L 63.823009 41.0688 
L 63.974066 43.488 
L 64.135926 45.9072 
L 64.309361 48.3264 
L 64.4952 50.7456 
L 64.694328 53.1648 
L 64.907695 55.584 
L 65.136321 58.0032 
L 65.381296 60.4224 
L 65.643789 62.8416 
L 65.925051 65.2608 
L 66.226424 67.68 
L 66.549347 70.0992 
L 66.895357 72.5184 
L 67.266107 74.9376 
L 67.663362 77.3568 
L 68.089016 79.776 
L 68.545098 82.1952 
L 69.03378 84.6144 
L 69.55739 87.0336 
L 70.118419 89.4528 
L 70.719539 91.872 
L 71.363609 94.2912 
L 72.05369 96.7104 
L 72.793061 99.1296 
L 73.585233 101.5488 
L 74.433964 103.968 
L 75.343277 106.3872 
L 76.317476 108.8064 
L 77.36117 111.2256 
L 78.479287 113.6448 
L 79.677098 116.064 
L 80.960241 118.4832 
L 82.334741 120.9024 
L 83.807038 123.3216 
L 85.38401 125.7408 
L 87.072999 128.16 
L 88.88184 130.5792 
L 90.81889 132.9984 
L 92.89305 135.4176 
L 95.113801 137.8368 
L 97.491223 140.256 
L 100.036027 142.6752 
L 102.759579 145.0944 
L 105.673915 147.5136 
L 108.791764 149.9328 
L 112.126558 152.352 
L 115.692431 154.7712 
L 119.504218 157.1904 
L 123.577428 159.6096 
L 127.928214 162.0288 
L 132.573307 164.448 
L 137.529936 166.8672 
L 142.81571 169.2864 
L 148.448454 171.7056 
L 154.446003 174.1248 
L 160.825931 176.544 
L 167.605207 178.9632 
L 174.799759 181.3824 
L 182.42394 183.8016 
L 190.489863 186.2208 
L 199.006598 188.64 
L 207.979195 191.0592 
L 217.407526 193.4784 
L 227.284919 195.8976 
L 237.596558 198.3168 
L 248.317652 200.736 
L 259.411372 203.1552 
L 270.826554 205.5744 
L 282.495245 207.9936 
L 294.330124 210.4128 
L 306.221958 212.832 
L 318.037236 215.2512 
L 329.616233 217.6704 
L 340.771812 220.0896 
L 351.289343 222.5088 
L 360.92819 224.928 
L 369.42523 227.3472 
L 376.500884 229.7664 
L 381.868026 232.1856 
L 385.243966 234.6048 
L 386.365398 237.024 
L 385.005769 239.4432 
L 380.994056 241.8624 
L 374.233352 244.2816 
L 364.717253 246.7008 
L 352.54174 249.12 
L 337.910362 251.5392 
L 321.130998 253.9584 
L 302.603425 256.3776 
L 282.798137 258.7968 
L 262.228221 261.216 
" clip-path="url(#p110dbda4d8)" style="fill: none; stroke: #7f7f7f; stroke-width: 1.5; stroke-linecap: square"/>
   </g>
   <g id="line2d_52">
    <path d="M 62.181359 19.296 
L 62.215009 21.7152 
L 62.251066 24.1344 
L 62.289702 26.5536 
L 62.331101 28.9728 
L 62.375461 31.392 
L 62.422993 33.8112 
L 62.473925 36.2304 
L 62.528499 38.6496 
L 62.586977 41.0688 
L 62.649636 43.488 
L 62.716777 45.9072 
L 62.78872 48.3264 
L 62.865808 50.7456 
L 62.948409 53.1648 
L 63.036918 55.584 
L 63.131757 58.0032 
L 63.233378 60.4224 
L 63.342267 62.8416 
L 63.458944 65.2608 
L 63.583964 67.68 
L 63.717926 70.0992 
L 63.861468 72.5184 
L 64.015276 74.9376 
L 64.180083 77.3568 
L 64.356677 79.776 
L 64.545899 82.1952 
L 64.748653 84.6144 
L 64.965907 87.0336 
L 65.198696 89.4528 
L 65.448132 91.872 
L 65.715405 94.2912 
L 66.001789 96.7104 
L 66.308651 99.1296 
L 66.637455 101.5488 
L 66.989768 103.968 
L 67.36727 106.3872 
L 67.771761 108.8064 
L 68.20517 111.2256 
L 68.66956 113.6448 
L 69.167145 116.064 
L 69.700295 118.4832 
L 70.271549 120.9024 
L 70.883624 123.3216 
L 71.539433 125.7408 
L 72.242093 128.16 
L 72.994945 130.5792 
L 73.801564 132.9984 
L 74.665776 135.4176 
L 75.591679 137.8368 
L 76.583659 140.256 
L 77.646407 142.6752 
L 78.784945 145.0944 
L 80.004644 147.5136 
L 81.311245 149.9328 
L 82.71089 152.352 
L 84.210138 154.7712 
L 85.816 157.1904 
L 87.53596 159.6096 
L 89.378004 162.0288 
L 91.350652 164.448 
L 93.462983 166.8672 
L 95.724666 169.2864 
L 98.145987 171.7056 
L 100.737879 174.1248 
L 103.511944 176.544 
L 106.480478 178.9632 
L 109.656491 181.3824 
L 113.053717 183.8016 
L 116.68662 186.2208 
L 120.570394 188.64 
L 124.72094 191.0592 
L 129.154835 193.4784 
L 133.889279 195.8976 
L 138.942012 198.3168 
L 144.331205 200.736 
L 150.0753 203.1552 
L 156.192816 205.5744 
L 162.702079 207.9936 
L 169.620891 210.4128 
L 176.966106 212.832 
L 184.7531 215.2512 
L 192.995126 217.6704 
L 201.702514 220.0896 
L 210.881712 222.5088 
L 220.534141 224.928 
L 230.654826 227.3472 
L 241.230815 229.7664 
L 252.239337 232.1856 
L 263.645726 234.6048 
L 275.401104 237.024 
L 287.439866 239.4432 
L 299.677041 241.8624 
L 312.005619 244.2816 
L 324.294031 246.7008 
L 336.383998 249.12 
L 348.089047 251.5392 
L 359.19408 253.9584 
L 369.456435 256.3776 
L 378.608934 258.7968 
L 386.365398 261.216 
" clip-path="url(#p110dbda4d8)" style="fill: none; stroke: #bcbd22; stroke-width: 1.5; stroke-linecap: square"/>
   </g>
   <g id="patch_3">
    <path d="M 45.478125 273.312 
L 45.478125 7.2 
" style="fill: none; stroke: #000000; stroke-width: 0.8; stroke-linejoin: miter; stroke-linecap: square"/>
   </g>
   <g id="patch_4">
    <path d="M 402.598125 273.312 
L 402.598125 7.2 
" style="fill: none; stroke: #000000; stroke-width: 0.8; stroke-linejoin: miter; stroke-linecap: square"/>
   </g>
   <g id="patch_5">
    <path d="M 45.478125 273.312 
L 402.598125 273.312 
" style="fill: none; stroke: #000000; stroke-width: 0.8; stroke-linejoin: miter; stroke-linecap: square"/>
   </g>
   <g id="patch_6">
    <path d="M 45.478125 7.2 
L 402.598125 7.2 
" style="fill: none; stroke: #000000; stroke-width: 0.8; stroke-linejoin: miter; stroke-linecap: square"/>
   </g>
   <g id="legend_1">
    <g id="patch_7">
     <path d="M 177.817813 147.303125 
L 270.258438 147.303125 
Q 272.258438 147.303125 272.258438 145.303125 
L 272.258438 14.2 
Q 272.258438 12.2 270.258438 12.2 
L 177.817813 12.2 
Q 175.817813 12.2 175.817813 14.2 
L 175.817813 145.303125 
Q 175.817813 147.303125 177.817813 147.303125 
z
" style="fill: #ffffff; opacity: 0.8; stroke: #cccccc; stroke-linejoin: miter"/>
    </g>
    <g id="line2d_53">
     <path d="M 179.817813 20.298437 
L 189.817813 20.298437 
L 199.817813 20.298437 
" style="fill: none; stroke: #1f77b4; stroke-width: 1.5; stroke-linecap: square"/>
    </g>
    <g id="text_12">
     <!-- AB/2=1.0 -->
     <g transform="translate(207.817813 23.798437) scale(0.1 -0.1)">
      <defs>
       <path id="DejaVuSans-3d" d="M 678 2906 
L 4684 2906 
L 4684 2381 
L 678 2381 
L 678 2906 
z
M 678 1631 
L 4684 1631 
L 4684 1100 
L 678 1100 
L 678 1631 
z
" transform="scale(0.015625)"/>
      </defs>
      <use xlink:href="#DejaVuSans-41"/>
      <use xlink:href="#DejaVuSans-42" transform="translate(68.408203 0)"/>
      <use xlink:href="#DejaVuSans-2f" transform="translate(137.011719 0)"/>
      <use xlink:href="#DejaVuSans-32" transform="translate(170.703125 0)"/>
      <use xlink:href="#DejaVuSans-3d" transform="translate(234.326172 0)"/>
      <use xlink:href="#DejaVuSans-31" transform="translate(318.115234 0)"/>
      <use xlink:href="#DejaVuSans-2e" transform="translate(381.738281 0)"/>
      <use xlink:href="#DejaVuSans-30" transform="translate(413.525391 0)"/>
     </g>
    </g>
    <g id="line2d_54">
     <path d="M 179.817813 34.976562 
L 189.817813 34.976562 
L 199.817813 34.976562 
" style="fill: none; stroke: #ff7f0e; stroke-width: 1.5; stroke-linecap: square"/>
    </g>
    <g id="text_13">
     <!-- AB/2=2.0 -->
     <g transform="translate(207.817813 38.476562) scale(0.1 -0.1)">
      <use xlink:href="#DejaVuSans-41"/>
      <use xlink:href="#DejaVuSans-42" transform="translate(68.408203 0)"/>
      <use xlink:href="#DejaVuSans-2f" transform="translate(137.011719 0)"/>
      <use xlink:href="#DejaVuSans-32" transform="translate(170.703125 0)"/>
      <use xlink:href="#DejaVuSans-3d" transform="translate(234.326172 0)"/>
      <use xlink:href="#DejaVuSans-32" transform="translate(318.115234 0)"/>
      <use xlink:href="#DejaVuSans-2e" transform="translate(381.738281 0)"/>
      <use xlink:href="#DejaVuSans-30" transform="translate(413.525391 0)"/>
     </g>
    </g>
    <g id="line2d_55">
     <path d="M 179.817813 49.654687 
L 189.817813 49.654687 
L 199.817813 49.654687 
" style="fill: none; stroke: #2ca02c; stroke-width: 1.5; stroke-linecap: square"/>
    </g>
    <g id="text_14">
     <!-- AB/2=5.0 -->
     <g transform="translate(207.817813 53.154687) scale(0.1 -0.1)">
      <defs>
       <path id="DejaVuSans-35" d="M 691 4666 
L 3169 4666 
L 3169 4134 
L 1269 4134 
L 1269 2991 
Q 1406 3038 1543 3061 
Q 1681 3084 1819 3084 
Q 2600 3084 3056 2656 
Q 3513 2228 3513 1497 
Q 3513 744 3044 326 
Q 2575 -91 1722 -91 
Q 1428 -91 1123 -41 
Q 819 9 494 109 
L 494 744 
Q 775 591 1075 516 
Q 1375 441 1709 441 
Q 2250 441 2565 725 
Q 2881 1009 2881 1497 
Q 2881 1984 2565 2268 
Q 2250 2553 1709 2553 
Q 1456 2553 1204 2497 
Q 953 2441 691 2322 
L 691 4666 
z
" transform="scale(0.015625)"/>
      </defs>
      <use xlink:href="#DejaVuSans-41"/>
      <use xlink:href="#DejaVuSans-42" transform="translate(68.408203 0)"/>
      <use xlink:href="#DejaVuSans-2f" transform="translate(137.011719 0)"/>
      <use xlink:href="#DejaVuSans-32" transform="translate(170.703125 0)"/>
      <use xlink:href="#DejaVuSans-3d" transform="translate(234.326172 0)"/>
      <use xlink:href="#DejaVuSans-35" transform="translate(318.115234 0)"/>
      <use xlink:href="#DejaVuSans-2e" transform="translate(381.738281 0)"/>
      <use xlink:href="#DejaVuSans-30" transform="translate(413.525391 0)"/>
     </g>
    </g>
    <g id="line2d_56">
     <path d="M 179.817813 64.332812 
L 189.817813 64.332812 
L 199.817813 64.332812 
" style="fill: none; stroke: #d62728; stroke-width: 1.5; stroke-linecap: square"/>
    </g>
    <g id="text_15">
     <!-- AB/2=10.0 -->
     <g transform="translate(207.817813 67.832812) scale(0.1 -0.1)">
      <use xlink:href="#DejaVuSans-41"/>
      <use xlink:href="#DejaVuSans-42" transform="translate(68.408203 0)"/>
      <use xlink:href="#DejaVuSans-2f" transform="translate(137.011719 0)"/>
      <use xlink:href="#DejaVuSans-32" transform="translate(170.703125 0)"/>
      <use xlink:href="#DejaVuSans-3d" transform="translate(234.326172 0)"/>
      <use xlink:href="#DejaVuSans-31" transform="translate(318.115234 0)"/>
      <use xlink:href="#DejaVuSans-30" transform="translate(381.738281 0)"/>
      <use xlink:href="#DejaVuSans-2e" transform="translate(445.361328 0)"/>
      <use xlink:href="#DejaVuSans-30" transform="translate(477.148438 0)"/>
     </g>
    </g>
    <g id="line2d_57">
     <path d="M 179.817813 79.010937 
L 189.817813 79.010937 
L 199.817813 79.010937 
" style="fill: none; stroke: #9467bd; stroke-width: 1.5; stroke-linecap: square"/>
    </g>
    <g id="text_16">
     <!-- AB/2=20.0 -->
     <g transform="translate(207.817813 82.510937) scale(0.1 -0.1)">
      <use xlink:href="#DejaVuSans-41"/>
      <use xlink:href="#DejaVuSans-42" transform="translate(68.408203 0)"/>
      <use xlink:href="#DejaVuSans-2f" transform="translate(137.011719 0)"/>
      <use xlink:href="#DejaVuSans-32" transform="translate(170.703125 0)"/>
      <use xlink:href="#DejaVuSans-3d" transform="translate(234.326172 0)"/>
      <use xlink:href="#DejaVuSans-32" transform="translate(318.115234 0)"/>
      <use xlink:href="#DejaVuSans-30" transform="translate(381.738281 0)"/>
      <use xlink:href="#DejaVuSans-2e" transform="translate(445.361328 0)"/>
      <use xlink:href="#DejaVuSans-30" transform="translate(477.148438 0)"/>
     </g>
    </g>
    <g id="line2d_58">
     <path d="M 179.817813 93.689062 
L 189.817813 93.689062 
L 199.817813 93.689062 
" style="fill: none; stroke: #8c564b; stroke-width: 1.5; stroke-linecap: square"/>
    </g>
    <g id="text_17">
     <!-- AB/2=50.0 -->
     <g transform="translate(207.817813 97.189062) scale(0.1 -0.1)">
      <use xlink:href="#DejaVuSans-41"/>
      <use xlink:href="#DejaVuSans-42" transform="translate(68.408203 0)"/>
      <use xlink:href="#DejaVuSans-2f" transform="translate(137.011719 0)"/>
      <use xlink:href="#DejaVuSans-32" transform="translate(170.703125 0)"/>
      <use xlink:href="#DejaVuSans-3d" transform="translate(234.326172 0)"/>
      <use xlink:href="#DejaVuSans-35" transform="translate(318.115234 0)"/>
      <use xlink:href="#DejaVuSans-30" transform="translate(381.738281 0)"/>
      <use xlink:href="#DejaVuSans-2e" transform="translate(445.361328 0)"/>
      <use xlink:href="#DejaVuSans-30" transform="translate(477.148438 0)"/>
     </g>
    </g>
    <g id="line2d_59">
     <path d="M 179.817813 108.367187 
L 189.817813 108.367187 
L 199.817813 108.367187 
" style="fill: none; stroke: #e377c2; stroke-width: 1.5; stroke-linecap: square"/>
    </g>
    <g id="text_18">
     <!-- AB/2=100.0 -->
     <g transform="translate(207.817813 111.867187) scale(0.1 -0.1)">
      <use xlink:href="#DejaVuSans-41"/>
      <use xlink:href="#DejaVuSans-42" transform="translate(68.408203 0)"/>
      <use xlink:href="#DejaVuSans-2f" transform="translate(137.011719 0)"/>
      <use xlink:href="#DejaVuSans-32" transform="translate(170.703125 0)"/>
      <use xlink:href="#DejaVuSans-3d" transform="translate(234.326172 0)"/>
      <use xlink:href="#DejaVuSans-31" transform="translate(318.115234 0)"/>
      <use xlink:href="#DejaVuSans-30" transform="translate(381.738281 0)"/>
      <use xlink:href="#DejaVuSans-30" transform="translate(445.361328 0)"/>
      <use xlink:href="#DejaVuSans-2e" transform="translate(508.984375 0)"/>
      <use xlink:href="#DejaVuSans-30" transform="translate(540.771484 0)"/>
     </g>
    </g>
    <g id="line2d_60">
     <path d="M 179.817813 123.045312 
L 189.817813 123.045312 
L 199.817813 123.045312 
" style="fill: none; stroke: #7f7f7f; stroke-width: 1.5; stroke-linecap: square"/>
    </g>
    <g id="text_19">
     <!-- AB/2=200.0 -->
     <g transform="translate(207.817813 126.545312) scale(0.1 -0.1)">
      <use xlink:href="#DejaVuSans-41"/>
      <use xlink:href="#DejaVuSans-42" transform="translate(68.408203 0)"/>
      <use xlink:href="#DejaVuSans-2f" transform="translate(137.011719 0)"/>
      <use xlink:href="#DejaVuSans-32" transform="translate(170.703125 0)"/>
      <use xlink:href="#DejaVuSans-3d" transform="translate(234.326172 0)"/>
      <use xlink:href="#DejaVuSans-32" transform="translate(318.115234 0)"/>
      <use xlink:href="#DejaVuSans-30" transform="translate(381.738281 0)"/>
      <use xlink:href="#DejaVuSans-30" transform="translate(445.361328 0)"/>
      <use xlink:href="#DejaVuSans-2e" transform="translate(508.984375 0)"/>
      <use xlink:href="#DejaVuSans-30" transform="translate(540.771484 0)"/>
     </g>
    </g>
    <g id="line2d_61">
     <path d="M 179.817813 137.723437 
L 189.817813 137.723437 
L 199.817813 137.723437 
" style="fill: none; stroke: #bcbd22; stroke-width: 1.5; stroke-linecap: square"/>
    </g>
    <g id="text_20">
     <!-- AB/2=500.0 -->
     <g transform="translate(207.817813 141.223437) scale(0.1 -0.1)">
      <use xlink:href="#DejaVuSans-41"/>
      <use xlink:href="#DejaVuSans-42" transform="translate(68.408203 0)"/>
      <use xlink:href="#DejaVuSans-2f" transform="translate(137.011719 0)"/>
      <use xlink:href="#DejaVuSans-32" transform="translate(170.703125 0)"/>
      <use xlink:href="#DejaVuSans-3d" transform="translate(234.326172 0)"/>
      <use xlink:href="#DejaVuSans-35" transform="translate(318.115234 0)"/>
      <use xlink:href="#DejaVuSans-30" transform="translate(381.738281 0)"/>
      <use xlink:href="#DejaVuSans-30" transform="translate(445.361328 0)"/>
      <use xlink:href="#DejaVuSans-2e" transform="translate(508.984375 0)"/>
      <use xlink:href="#DejaVuSans-30" transform="translate(540.771484 0)"/>
     </g>
    </g>
   </g>
  </g>
 </g>
 <defs>
  <clipPath id="p110dbda4d8">
   <rect x="45.478125" y="7.2" width="357.12" height="266.112"/>
  </clipPath>
 </defs>
</svg>
